<mxfile host="65bd71144e">
    <diagram name="Page-1" id="SVAJx1drAQpVuMVG7e-3">
        <mxGraphModel dx="1086" dy="801" grid="1" gridSize="10" guides="1" tooltips="1" connect="1" arrows="1" fold="1" page="1" pageScale="1" pageWidth="850" pageHeight="1100" math="0" shadow="0">
            <root>
                <mxCell id="0"/>
                <mxCell id="1" parent="0"/>
                <mxCell id="_k-LYIHpiRqsw7f86GPR-4" value="" style="edgeStyle=orthogonalEdgeStyle;rounded=0;orthogonalLoop=1;jettySize=auto;html=1;" parent="1" source="_k-LYIHpiRqsw7f86GPR-2" target="_k-LYIHpiRqsw7f86GPR-3" edge="1">
                    <mxGeometry relative="1" as="geometry"/>
                </mxCell>
                <mxCell id="_k-LYIHpiRqsw7f86GPR-2" value="&lt;h2 style=&quot;font-size: 24px;&quot;&gt;&lt;font style=&quot;font-size: 24px;&quot;&gt;S&lt;/font&gt;TART&lt;br&gt;&lt;/h2&gt;" style="ellipse;whiteSpace=wrap;html=1;fillColor=#60a917;strokeColor=#2D7600;fontColor=#ffffff;" parent="1" vertex="1">
                    <mxGeometry x="365" y="50" width="120" height="80" as="geometry"/>
                </mxCell>
                <mxCell id="_k-LYIHpiRqsw7f86GPR-6" value="" style="edgeStyle=orthogonalEdgeStyle;rounded=0;orthogonalLoop=1;jettySize=auto;html=1;" parent="1" source="_k-LYIHpiRqsw7f86GPR-3" target="_k-LYIHpiRqsw7f86GPR-5" edge="1">
                    <mxGeometry relative="1" as="geometry"/>
                </mxCell>
                <mxCell id="_k-LYIHpiRqsw7f86GPR-3" value="Get &quot;Number&quot;" style="shape=parallelogram;perimeter=parallelogramPerimeter;whiteSpace=wrap;html=1;fixedSize=1;fillColor=#1ba1e2;strokeColor=#006EAF;size=15;fontColor=#ffffff;" parent="1" vertex="1">
                    <mxGeometry x="365" y="180" width="120" height="60" as="geometry"/>
                </mxCell>
                <mxCell id="_k-LYIHpiRqsw7f86GPR-18" value="" style="edgeStyle=orthogonalEdgeStyle;rounded=0;orthogonalLoop=1;jettySize=auto;html=1;" parent="1" source="_k-LYIHpiRqsw7f86GPR-5" edge="1">
                    <mxGeometry relative="1" as="geometry">
                        <mxPoint x="425" y="430" as="targetPoint"/>
                    </mxGeometry>
                </mxCell>
                <mxCell id="_k-LYIHpiRqsw7f86GPR-5" value="Set &quot;square root&quot; to the square root of the number" style="rounded=0;whiteSpace=wrap;html=1;fillColor=#f0a30a;strokeColor=#BD7000;fontColor=#000000;" parent="1" vertex="1">
                    <mxGeometry x="365" y="290" width="120" height="90" as="geometry"/>
                </mxCell>
                <mxCell id="3" value="" style="edgeStyle=none;html=1;startArrow=none;startFill=0;endArrow=blockThin;endFill=1;" edge="1" parent="1" source="_k-LYIHpiRqsw7f86GPR-7" target="_k-LYIHpiRqsw7f86GPR-9">
                    <mxGeometry relative="1" as="geometry"/>
                </mxCell>
                <mxCell id="_k-LYIHpiRqsw7f86GPR-7" value="Print &quot;The Square Root of (number) is (square root)" style="shape=parallelogram;perimeter=parallelogramPerimeter;whiteSpace=wrap;html=1;fixedSize=1;fillColor=#1ba1e2;strokeColor=#006EAF;rounded=0;fontColor=#ffffff;" parent="1" vertex="1">
                    <mxGeometry x="365" y="430" width="120" height="80" as="geometry"/>
                </mxCell>
                <mxCell id="_k-LYIHpiRqsw7f86GPR-9" value="END" style="ellipse;whiteSpace=wrap;html=1;fillColor=#a20025;strokeColor=#6F0000;fontSize=24;fontStyle=1;fontColor=#ffffff;" parent="1" vertex="1">
                    <mxGeometry x="365" y="560" width="120" height="80" as="geometry"/>
                </mxCell>
            </root>
        </mxGraphModel>
    </diagram>
</mxfile>